<svg id="Ebene_1" data-name="Ebene 1" xmlns="http://www.w3.org/2000/svg" viewBox="0 0 927 195"><defs><style>.cls-1,.cls-2{fill:#1d1d1b;}.cls-1{fill-rule:evenodd;}.cls-3{fill:#009fe3;}.cls-4{fill:none;stroke:#009fe3;stroke-miterlimit:3.86;stroke-width:5.14px;}</style></defs><path class="cls-1" d="M340.17,91.85h3.3c3.5,0,7.2.7,7.2,5.25,0,4.05-3.95,4.85-7.2,4.85h-3.3V91.85Zm0-13.8h2.7c3.2,0,6.75.3,6.75,4.35,0,3.6-3.65,4.25-6.6,4.25h-2.85v-8.6Zm-7,29.4h12.2c4.4,0,12.3-1.3,12.3-10.1,0-4.3-3.25-7.5-8-7.95v-.1c4.15-.75,6.95-3.65,6.95-7.8,0-7.65-6.75-9-11.25-9h-12.2v34.9Z" transform="translate(-7.3 -9)"/><path class="cls-1" d="M361.7,94.75c0,7.4,4.95,13.3,13.45,13.3s13.5-5.9,13.5-13.3c0-8.5-5.85-13.65-13.5-13.65S361.7,86.25,361.7,94.75Zm7-.8c0-3.85,2.1-7.65,6.45-7.65s6.5,3.7,6.5,7.65c0,4.3-1.35,8.9-6.5,8.9S368.7,98.2,368.7,94Z" transform="translate(-7.3 -9)"/><path class="cls-2" d="M394.13,107.45h6.7V94.85c0-3.3,1.05-8.55,5.9-8.55,4.3,0,4.35,4.25,4.35,7.4v13.75h6.7V91.2c0-5.8-2.65-10.1-8.75-10.1a9.62,9.62,0,0,0-8.45,4.1h-.1V81.7h-6.35v25.75Z" transform="translate(-7.3 -9)"/><path class="cls-2" d="M424.91,107.45h6.7V94.85c0-3.3,1.05-8.55,5.9-8.55,4.3,0,4.35,4.25,4.35,7.4v13.75h6.7V91.2c0-5.8-2.65-10.1-8.75-10.1a9.62,9.62,0,0,0-8.45,4.1h-.1V81.7h-6.35v25.75Z" transform="translate(-7.3 -9)"/><polygon class="cls-2" points="459.85 87.75 459.85 82.25 446.7 82.25 446.7 87.75 459.85 87.75 459.85 87.75"/><path class="cls-1" d="M479.58,78.05h2.3c3.5,0,7.4.35,7.4,4.55,0,4.35-3.95,4.85-7.4,4.85h-2.3v-9.4Zm-7,29.4h7V93h2.25c2.95,0,3.84,1,4.85,3.6l4.19,10.9h7.81l-5.6-13.65c-.71-1.55-1.8-3.45-3.71-3.6v-.1a8,8,0,0,0,7.2-8.1c0-9.7-8.94-9.45-16.44-9.45h-7.55v34.9Z" transform="translate(-7.3 -9)"/><path class="cls-2" d="M503.36,107.45h6.7V94.85c0-3.3,1.05-8.55,5.9-8.55,4.3,0,4.35,4.25,4.35,7.4v13.75H527V91.2c0-5.8-2.65-10.1-8.75-10.1a9.59,9.59,0,0,0-8.1,4.1h-.1V70h-6.7v37.5Z" transform="translate(-7.3 -9)"/><path class="cls-1" d="M538.89,92.05c.3-3.45,2.2-6,6-6s5.25,2.8,5.45,6Zm15.9,8.5a17.37,17.37,0,0,1-8.55,2.6c-4.15,0-7-2.35-7.35-6.5h17.8c0-9-2.7-15.55-12.25-15.55-8,0-12,6.15-12,13.6,0,8.45,5,13.35,13.45,13.35a17.69,17.69,0,0,0,8.85-2v-5.45Z" transform="translate(-7.3 -9)"/><path class="cls-1" d="M562.32,107.45H569V81.7h-6.7v25.75Zm0-30.45H569V70.6h-6.7V77Z" transform="translate(-7.3 -9)"/><path class="cls-2" d="M576.3,107.45H583V94.85c0-3.3,1-8.55,5.9-8.55,4.3,0,4.35,4.25,4.35,7.4v13.75H600V91.2c0-5.8-2.65-10.1-8.75-10.1a9.62,9.62,0,0,0-8.45,4.1h-.1V81.7H576.3v25.75Z" transform="translate(-7.3 -9)"/><polygon class="cls-2" points="611.24 87.75 611.24 82.25 598.09 82.25 598.09 87.75 611.24 87.75 611.24 87.75"/><path class="cls-2" d="M644,73.2A26.34,26.34,0,0,0,635.62,72c-6.15,0-12.2,2.85-12.2,10.65,0,11.55,15.3,8.8,15.3,15.45,0,3.15-3.55,4.5-6.2,4.5a16.85,16.85,0,0,1-7.9-2.15l-.65,6.3a30.75,30.75,0,0,0,8.95,1.35c7.05,0,13.1-2.9,13.1-10.55,0-11.7-15.3-9.15-15.3-15.2,0-3.8,3.1-4.85,5.5-4.85a18.07,18.07,0,0,1,7.1,1.5L644,73.2Z" transform="translate(-7.3 -9)"/><path class="cls-1" d="M652.15,107.45h6.7V81.7h-6.7v25.75Zm0-30.45h6.7V70.6h-6.7V77Z" transform="translate(-7.3 -9)"/><path class="cls-1" d="M670.88,92.05c.3-3.45,2.2-6,6-6s5.25,2.8,5.45,6Zm15.9,8.5a17.37,17.37,0,0,1-8.55,2.6c-4.15,0-7.05-2.35-7.35-6.5h17.8c0-9-2.7-15.55-12.25-15.55-8,0-11.95,6.15-11.95,13.6,0,8.45,4.95,13.35,13.45,13.35a17.69,17.69,0,0,0,8.85-2v-5.45Z" transform="translate(-7.3 -9)"/><path class="cls-1" d="M705.21,102.25c-3.85,0-5.7-4.3-5.7-7.8,0-4,1.45-8.15,6-8.15,3.9,0,5.6,3.6,5.6,8s-1.7,8-5.9,8Zm6.2-20.55v3.5h-.1c-1.85-3-4.5-4.1-7.9-4.1-7.7,0-10.9,7.15-10.9,13.35,0,6.9,2.9,13,10.5,13a9.2,9.2,0,0,0,8-4.1h.1c0,4.45-.35,10-7.75,10a19.32,19.32,0,0,1-7.5-2.25l-.55,5.7a22.64,22.64,0,0,0,8.9,1.75c10.8,0,13.6-6.6,13.6-13.6V81.7Z" transform="translate(-7.3 -9)"/><polygon class="cls-2" points="325.87 45.95 332.87 45.95 332.87 30.65 346.87 30.65 346.87 45.95 353.87 45.95 353.87 11.05 346.87 11.05 346.87 25.15 332.87 25.15 332.87 11.05 325.87 11.05 325.87 45.95 325.87 45.95"/><path class="cls-1" d="M367.25,42.25c0,7.4,4.95,13.3,13.45,13.3s13.5-5.9,13.5-13.3c0-8.5-5.85-13.65-13.5-13.65s-13.45,5.15-13.45,13.65Zm7-.8c0-3.85,2.1-7.65,6.45-7.65s6.5,3.7,6.5,7.65c0,4.3-1.35,8.9-6.5,8.9s-6.45-4.65-6.45-8.9Z" transform="translate(-7.3 -9)"/><path class="cls-2" d="M417,29.45a21.8,21.8,0,0,0-6.5-.85C402.43,28.6,398,34.5,398,42c0,7.85,4.25,13.6,12.7,13.6a21.84,21.84,0,0,0,6.7-.85l-.3-5.55a14.2,14.2,0,0,1-5.15,1.2c-4.7,0-7-3.65-7-8.4s2.65-8.15,6.8-8.15a10.11,10.11,0,0,1,4.55,1l.6-5.3Z" transform="translate(-7.3 -9)"/><path class="cls-2" d="M422.11,55h6.7V42.35c0-3.3,1.05-8.55,5.9-8.55,4.3,0,4.35,4.25,4.35,7.4V55h6.7V38.7c0-5.8-2.65-10.1-8.75-10.1a9.59,9.59,0,0,0-8.1,4.1h-.1V17.45h-6.7V55Z" transform="translate(-7.3 -9)"/><path class="cls-2" d="M468.64,29.55a30.85,30.85,0,0,0-7.3-.95c-5.25,0-10.1,2.45-10.1,8,0,9.3,11.65,5.85,11.65,10.9,0,2.5-2.7,3.15-4.4,3.15a14.71,14.71,0,0,1-6.6-1.7l-.4,5.5a30,30,0,0,0,7.6,1.1c5.45,0,10.8-2.4,10.8-8.4,0-9.3-11.65-6.7-11.65-10.8,0-2.2,2.15-2.85,3.95-2.85a16.43,16.43,0,0,1,6,1.1l.45-5.05Z" transform="translate(-7.3 -9)"/><path class="cls-2" d="M492.63,29.45a21.8,21.8,0,0,0-6.5-.85c-8.05,0-12.45,5.9-12.45,13.35,0,7.85,4.25,13.6,12.7,13.6a21.84,21.84,0,0,0,6.7-.85l-.3-5.55a14.2,14.2,0,0,1-5.15,1.2c-4.7,0-6.95-3.65-6.95-8.4s2.65-8.15,6.8-8.15a10.11,10.11,0,0,1,4.55,1l.6-5.3Z" transform="translate(-7.3 -9)"/><path class="cls-2" d="M497.76,55h6.7V42.35c0-3.3,1.05-8.55,5.9-8.55,4.3,0,4.35,4.25,4.35,7.4V55h6.7V38.7c0-5.8-2.65-10.1-8.75-10.1a9.59,9.59,0,0,0-8.1,4.1h-.1V17.45h-6.7V55Z" transform="translate(-7.3 -9)"/><path class="cls-2" d="M552.19,29.2h-6.7V41.8c0,3.3-1,8.55-5.9,8.55-4.3,0-4.35-4.25-4.35-7.4V29.2h-6.7V45.45c0,5.8,2.65,10.1,8.75,10.1a10.74,10.74,0,0,0,8.45-4.1h.1V55h6.35V29.2Z" transform="translate(-7.3 -9)"/><polygon class="cls-2" points="552.18 45.95 558.88 45.95 558.88 8.45 552.18 8.45 552.18 45.95 552.18 45.95"/><path class="cls-1" d="M578.2,39.55c.3-3.45,2.2-6,6-6s5.24,2.8,5.44,6Zm15.9,8.5a17.31,17.31,0,0,1-8.55,2.6c-4.15,0-7-2.35-7.35-6.5H596c0-9-2.7-15.55-12.26-15.55-8,0-12,6.15-12,13.6,0,8.45,5,13.35,13.45,13.35a17.69,17.69,0,0,0,8.85-2V48.05Z" transform="translate(-7.3 -9)"/><path class="cls-3" d="M9.87,59.32a47.25,47.25,0,1,1,47.25,47.25A47.24,47.24,0,0,1,9.87,59.32Zm14.78-.13A32.59,32.59,0,1,0,57.24,26.61,32.59,32.59,0,0,0,24.65,59.19Zm124.47-.37a47.25,47.25,0,1,1,47.25,47.25,47.24,47.24,0,0,1-47.25-47.25Z" transform="translate(-7.3 -9)"/><path class="cls-4" d="M9.87,59.32a47.25,47.25,0,1,1,47.25,47.25A47.24,47.24,0,0,1,9.87,59.32Zm14.78-.13A32.59,32.59,0,1,0,57.24,26.61,32.59,32.59,0,0,0,24.65,59.19Zm124.47-.37a47.25,47.25,0,1,1,47.25,47.25,47.24,47.24,0,0,1-47.25-47.25Z" transform="translate(-7.3 -9)"/><text x="-7.3" y="-9"/></svg>